<svg xmlns="http://www.w3.org/2000/svg" width="53.974" height="53.974" viewBox="0 0 53.974 53.974">
  <path id="Book" d="M32.467,35.494c-.4,2.046-2.5.9-1.619,1.146L17.556,32.548a1.644,1.644,0,0,1-.945-1.964c.2-.9.945-1.391,1.619-1.146l13.291,4.173A1.637,1.637,0,0,1,32.467,35.494Zm-1.012,9L18.164,40.322a1.3,1.3,0,0,0-1.619,1.146,1.624,1.624,0,0,0,.945,1.964L30.78,47.6c-.877-.245,1.214.737,1.619-1.145A1.644,1.644,0,0,0,31.455,44.495Zm-3.981,9.573-9.311-2.946a1.3,1.3,0,0,0-1.619,1.146,1.624,1.624,0,0,0,.945,1.964L26.8,57.177c-.877-.246,1.214.736,1.619-1.146A1.644,1.644,0,0,0,27.474,54.068Zm36.5-35.429V61.6a1.546,1.546,0,0,1-1.012,1.555L37.325,70.924a.957.957,0,0,1-.675,0L11.012,63.15A1.546,1.546,0,0,1,10,61.6V18.639c0-1.064.81-1.882,1.687-1.555l25.3,7.691,25.3-7.691C63.165,16.756,63.974,17.575,63.974,18.639ZM35.638,27.721,12.7,20.766V60.287l22.939,6.955Zm25.638-6.955L38.337,27.721V67.242l22.939-6.955Zm-3.913,9.819c-.2-.9-.945-1.391-1.619-1.146L42.452,33.612a1.644,1.644,0,0,0-.945,1.964c.4,2.046,2.5.9,1.619,1.146l13.291-4.173a1.644,1.644,0,0,0,.945-1.964Zm0,10.964c-.2-.9-.945-1.391-1.619-1.146L42.452,44.576a1.645,1.645,0,0,0-.945,1.964c.4,1.964,2.5.9,1.619,1.146l13.291-4.173A1.644,1.644,0,0,0,57.362,41.549ZM53.382,53.577c-.2-.9-.945-1.391-1.619-1.146l-9.311,2.946a1.644,1.644,0,0,0-.945,1.964c.4,2.046,2.5.9,1.619,1.146l9.311-2.864A1.7,1.7,0,0,0,53.382,53.577Z" transform="translate(-10 -17.011)" fill="#51ae3a"/>
</svg>
