<svg xmlns="http://www.w3.org/2000/svg" width="60" height="60" viewBox="0 0 60 60">
  <g id="kisspng-computer-icons-business-franchising-5af6e2d23a2034.7576197315261293622381" transform="translate(0 512)">
    <path id="Path_184" data-name="Path 184" d="M17.177-511.7l-.3.316v23.133l.3.316.316.3,4.781.023,4.792.035-7.593,5.59-7.581,5.6H.621l-.316.3-.3.316v23.133l.3.316.316.3H12.643c12.725-.012,12.233.012,12.526-.551.2-.352.2-22.863.012-23.273a.969.969,0,0,0-.387-.422,38.151,38.151,0,0,0-4.956-.164l-4.722-.023,7.44-5.484L30-487.391l7.44,5.473,7.44,5.484-4.792.035-4.781.023-.316.3-.3.316v23.133l.3.316.316.3H47.325c12.725-.012,12.233.012,12.526-.551.2-.363.2-22.91,0-23.273-.293-.551-.2-.539-6.128-.551H48.1l-7.581-5.6-7.593-5.59,4.253-.024a34.323,34.323,0,0,0,4.488-.164.968.968,0,0,0,.387-.422c.187-.41.187-22.922-.012-23.273-.293-.562.2-.539-12.526-.551H17.494Zm4.382,3.445v1.875H18.747v-3.75h2.812Zm4.687,0v1.875H23.434v-3.75h2.812Zm4.687,0v1.875H28.121v-3.75h2.812Zm4.687,0v1.875H32.808v-3.75H35.62Zm4.687,0v1.875H37.495v-3.75h2.812Zm-18.759,4.676c-.059,1.1-.281,1.5-1.008,1.758a.883.883,0,0,1-.926-.059c-.621-.3-.867-.82-.867-1.84v-.785h2.836Zm4.687,0c-.059,1.1-.281,1.5-1.008,1.758a.883.883,0,0,1-.926-.059c-.621-.3-.867-.82-.867-1.84v-.785H26.27Zm4.687,0c-.059,1.1-.281,1.5-1.008,1.758a.883.883,0,0,1-.926-.059c-.621-.3-.867-.82-.867-1.84v-.785h2.836Zm4.687,0c-.059,1.1-.281,1.5-1.008,1.758a.883.883,0,0,1-.926-.059c-.621-.3-.867-.82-.867-1.84v-.785h2.836Zm4.687,0c-.059,1.1-.281,1.5-1.008,1.758a.883.883,0,0,1-.926-.059c-.621-.3-.867-.82-.867-1.84v-.785H40.33Zm-17.622,2.941a2.8,2.8,0,0,0,.68.434,3.433,3.433,0,0,0,3.632-.41c.176-.164.223-.164.41,0a3.982,3.982,0,0,0,.726.457,3.487,3.487,0,0,0,3.55-.457c.176-.164.223-.164.41,0a3.981,3.981,0,0,0,.726.457,3.487,3.487,0,0,0,3.55-.457c.176-.164.223-.164.41,0a3.385,3.385,0,0,0,2.988.645l.551-.176V-489.5H26.246v-3.082c0-2.836-.023-3.106-.246-3.6a3.67,3.67,0,0,0-.551-.867,3.3,3.3,0,0,0-2.015-.891,3.3,3.3,0,0,0-2.015.891,3.67,3.67,0,0,0-.551.867c-.223.492-.246.762-.246,3.6v3.082H18.747v-10.641l.562.176a3.424,3.424,0,0,0,1.148.117,3.936,3.936,0,0,0,1.863-.785.252.252,0,0,1,.176-.117A.252.252,0,0,1,22.672-500.633Zm1.242,4.723c.422.316.457.609.457,3.527v2.883H22.5v-2.965a13.5,13.5,0,0,1,.152-3.141A.945.945,0,0,1,23.914-495.91ZM4.687-472.625v1.875H1.875v-3.75H4.687Zm4.687,0v1.875H6.562v-3.75H9.374Zm4.687,0v1.875H11.248v-3.75H14.06Zm4.687,0v1.875H15.935v-3.75h2.812Zm4.687,0v1.875H20.622v-3.75h2.812Zm15.935,0v1.875H36.557v-3.75h2.812Zm4.687,0v1.875H41.244v-3.75h2.812Zm4.687,0v1.875H45.931v-3.75h2.812Zm4.687,0v1.875H50.618v-3.75H53.43Zm4.687,0v1.875H55.3v-3.75h2.812ZM4.675-467.949c-.059,1.1-.281,1.5-1.008,1.758a.883.883,0,0,1-.926-.059c-.621-.3-.867-.82-.867-1.84v-.785H4.71Zm4.687,0c-.059,1.1-.281,1.5-1.008,1.758a.883.883,0,0,1-.926-.059c-.621-.3-.867-.82-.867-1.84v-.785H9.4Zm4.687,0c-.059,1.1-.281,1.5-1.008,1.758a.883.883,0,0,1-.926-.059c-.621-.3-.867-.82-.867-1.84v-.785h2.836Zm4.687,0c-.059,1.1-.281,1.5-1.008,1.758a.883.883,0,0,1-.926-.059c-.621-.3-.867-.82-.867-1.84v-.785h2.836Zm4.687,0c-.059,1.1-.281,1.5-1.008,1.758a.883.883,0,0,1-.926-.059c-.621-.3-.867-.82-.867-1.84v-.785h2.836Zm15.935,0c-.059,1.1-.281,1.5-1.008,1.758a.883.883,0,0,1-.926-.059c-.621-.3-.867-.82-.867-1.84v-.785h2.836Zm4.687,0c-.059,1.1-.281,1.5-1.008,1.758a.883.883,0,0,1-.926-.059c-.621-.3-.867-.82-.867-1.84v-.785h2.836Zm4.687,0c-.059,1.1-.281,1.5-1.008,1.758a.883.883,0,0,1-.926-.059c-.621-.3-.867-.82-.867-1.84v-.785h2.836Zm4.687,0c-.059,1.1-.281,1.5-1.008,1.758a.883.883,0,0,1-.926-.059c-.621-.3-.867-.82-.867-1.84v-.785h2.836Zm4.687,0c-.059,1.1-.281,1.5-1.008,1.758a.883.883,0,0,1-.926-.059c-.621-.3-.867-.82-.867-1.84v-.785H58.14ZM5.8-465.008a2.81,2.81,0,0,0,.68.434,3.433,3.433,0,0,0,3.632-.41c.176-.164.223-.164.41,0a3.434,3.434,0,0,0,4.277,0c.176-.164.223-.164.41,0a3.434,3.434,0,0,0,4.277,0c.176-.164.223-.164.41,0a3.385,3.385,0,0,0,2.988.645l.551-.176v10.641H9.374v-3.082c0-2.836-.023-3.105-.246-3.6a2.757,2.757,0,0,0-1.453-1.477,2.41,2.41,0,0,0-2.226,0A2.757,2.757,0,0,0,4-460.555c-.223.492-.246.762-.246,3.6v3.082H1.875v-10.641l.562.176a3.426,3.426,0,0,0,1.148.117,3.938,3.938,0,0,0,1.863-.785.252.252,0,0,1,.176-.117A.252.252,0,0,1,5.8-465.008Zm34.682,0a2.81,2.81,0,0,0,.68.434,3.433,3.433,0,0,0,3.632-.41c.176-.164.223-.164.41,0a3.434,3.434,0,0,0,4.277,0c.176-.164.223-.164.41,0a3.434,3.434,0,0,0,4.277,0c.176-.164.223-.164.41,0a3.385,3.385,0,0,0,2.988.645l.551-.176v10.641H44.056v-3.082c0-2.836-.023-3.105-.246-3.6a2.757,2.757,0,0,0-1.453-1.477,2.41,2.41,0,0,0-2.226,0,2.757,2.757,0,0,0-1.453,1.477c-.223.492-.246.762-.246,3.6v3.082H36.557v-10.641l.562.176a3.426,3.426,0,0,0,1.148.117,3.938,3.938,0,0,0,1.863-.785.252.252,0,0,1,.176-.117A.252.252,0,0,1,40.482-465.008ZM7.194-460.133l.3.317v5.941H5.624v-2.871c0-2.988.047-3.328.516-3.551A.811.811,0,0,1,7.194-460.133Zm34.53-.152c.422.316.457.609.457,3.527v2.883H40.307v-2.965a13.5,13.5,0,0,1,.152-3.141A.945.945,0,0,1,41.724-460.285Z" transform="translate(0 0)" fill="#51ae3a"/>
    <path id="Path_185" data-name="Path 185" d="M240.2-391.8l-.2.2v3.416l.2.2.2.2h2.9a17.691,17.691,0,0,0,3.025-.1c.263-.2.293-.4.293-2.009s-.03-1.806-.293-2.009a17.7,17.7,0,0,0-3.025-.1h-2.9Zm5.221,1.911v.9H241.2V-390.8h4.213Z" transform="translate(-209.791 -105.319)" fill="#51ae3a"/>
    <path id="Path_186" data-name="Path 186" d="M96.293-87.948c-.263.2-.293.4-.293,2.009s.03,1.806.293,2.009a44.856,44.856,0,0,0,6.034,0c.263-.2.293-.4.293-2.009s-.03-1.806-.293-2.009A44.859,44.859,0,0,0,96.293-87.948Zm5.124,2.009v.9H97.2v-1.806h4.213Z" transform="translate(-83.916 -370.575)" fill="#51ae3a"/>
    <path id="Path_187" data-name="Path 187" d="M392.2-87.8l-.2.2v3.416l.2.2.2.2h2.9a17.692,17.692,0,0,0,3.025-.1c.263-.2.293-.4.293-2.009s-.03-1.806-.293-2.009A17.692,17.692,0,0,0,395.3-88h-2.9Zm5.222,1.911v.9H393.2V-86.8h4.213Z" transform="translate(-341.034 -370.621)" fill="#51ae3a"/>
  </g>
</svg>
