<svg xmlns="http://www.w3.org/2000/svg" width="31" height="30" viewBox="0 0 31 30">
  <g id="Group_977" data-name="Group 977" transform="translate(-385.042 -60)">
    <rect id="Rectangle_1538" data-name="Rectangle 1538" width="31" height="30" transform="translate(385.042 60)" fill="#fff" opacity="0"/>
    <g id="Group_976" data-name="Group 976" transform="translate(388.832 62.96)">
      <g id="notification" transform="translate(0)">
        <g id="Path_20" data-name="Path 20" transform="translate(-0.796 -0.266)" fill="#fff" fill-rule="evenodd">
          <path d="M 11.59795475006104 25.30396842956543 C 9.610878944396973 25.30396842956543 7.876558303833008 23.90824508666992 7.442978858947754 21.97350883483887 L 3.285714626312256 21.97350883483887 C 2.395204782485962 21.97350883483887 1.576244711875916 21.50891876220703 1.0949946641922 20.73072814941406 C 0.6147047281265259 19.95409965515137 0.5649546980857849 19.01580810546875 0.961894690990448 18.22078895568848 C 1.874954700469971 16.39220809936523 2.357574701309204 14.4957389831543 2.357574701309204 12.73640918731689 L 2.357574701309204 9.409278869628906 C 2.357574701309204 6.949799060821533 3.320584774017334 4.631289005279541 5.069194793701172 2.880858898162842 C 6.818324565887451 1.129908919334412 9.135794639587402 0.165618896484375 11.5947151184082 0.165618896484375 C 14.05419445037842 0.165618896484375 16.37309455871582 1.129788875579834 18.12425422668457 2.880528926849365 C 19.8755054473877 4.631369113922119 20.83996391296387 6.949988842010498 20.83996391296387 9.409278869628906 L 20.83996391296387 12.73640918731689 C 20.83996391296387 14.97212886810303 21.59451484680176 16.95285797119141 22.22749519348145 18.22078895568848 C 22.62502479553223 19.01693916320801 22.57523536682129 19.95652961730957 22.09430503845215 20.73420906066895 C 21.61440467834473 21.51021957397461 20.79790496826172 21.97350883483887 19.91016387939453 21.97350883483887 L 15.75294017791748 21.97350883483887 C 15.31936168670654 23.90824508666992 13.58504009246826 25.30396842956543 11.59795475006104 25.30396842956543 Z M 9.398432731628418 21.97350883483887 C 9.766609191894531 22.85705375671387 10.63325881958008 23.44118881225586 11.59795475006104 23.44118881225586 C 12.56266021728516 23.44118881225586 13.42931365966797 22.8570442199707 13.79748153686523 21.97350883483887 L 9.398432731628418 21.97350883483887 Z M 11.5947151184082 2.021888971328735 C 7.524894714355469 2.021888971328735 4.213854789733887 5.335858821868896 4.213854789733887 9.409278869628906 L 4.213854789733887 12.73640918731689 C 4.213854789733887 14.17047882080078 3.938484668731689 16.43143844604492 2.626614809036255 19.05870819091797 C 2.503634691238403 19.30499839782715 2.5084547996521 19.5681095123291 2.639844655990601 19.78056907653809 C 2.772174596786499 19.99456977844238 3.007584810256958 20.1172981262207 3.285714626312256 20.1172981262207 L 19.91016387939453 20.1172981262207 C 20.18494415283203 20.1172981262207 20.41821479797363 19.99494934082031 20.55014419555664 19.78160858154297 C 20.68208503723145 19.56825828552246 20.68730545043945 19.30476951599121 20.56444549560547 19.05870819091797 C 19.25661468505859 16.43929862976074 18.98209381103516 14.17481899261475 18.98209381103516 12.73640918731689 L 18.98209381103516 9.409278869628906 C 18.98209381103516 5.335858821868896 15.66813468933105 2.021888971328735 11.5947151184082 2.021888971328735 Z" stroke="none"/>
          <path d="M 11.5947151184082 0.2656097412109375 C 6.564844131469727 0.2656097412109375 2.457574844360352 4.380159378051758 2.457574844360352 9.409278869628906 L 2.457574844360352 12.73640918731689 C 2.457574844360352 15.29374885559082 1.455743789672852 17.45560836791992 1.051355361938477 18.26545906066895 C 0.2380847930908203 19.89430999755859 1.466585159301758 21.87350845336914 3.285715103149414 21.87350845336914 L 7.523835182189941 21.87350845336914 C 7.910094261169434 23.76706886291504 9.594904899597168 25.20395851135254 11.59795475006104 25.20395851135254 C 13.60101509094238 25.20395851135254 15.2858247756958 23.76706886291504 15.67208480834961 21.87350845336914 L 19.91016387939453 21.87350845336914 C 21.72898483276367 21.87350845336914 22.95004463195801 19.8917293548584 22.13802528381348 18.26545906066895 C 21.73563385009766 17.45942878723145 20.73996543884277 15.29482936859131 20.73996543884277 12.73640918731689 L 20.73996543884277 9.409278869628906 C 20.73996543884277 4.379409790039062 16.62460517883301 0.2656097412109375 11.5947151184082 0.2656097412109375 M 19.91016387939453 20.21729850769043 L 3.285715103149414 20.21729850769043 C 2.630134582519531 20.21729850769043 2.244924545288086 19.5992488861084 2.537134170532227 19.0140380859375 C 2.975725173950195 18.13567924499512 4.113855361938477 15.72165870666504 4.113855361938477 12.73640918731689 L 4.113855361938477 9.409278869628906 C 4.113855361938477 5.284168243408203 7.470294952392578 1.92188835144043 11.5947151184082 1.92188835144043 C 15.71905517578125 1.92188835144043 19.08209419250488 5.284908294677734 19.08209419250488 9.409278869628906 L 19.08209419250488 12.73640918731689 C 19.08209419250488 15.72049903869629 20.21436500549316 18.1336784362793 20.65391540527344 19.0140380859375 C 20.94498443603516 19.59700775146484 20.56071472167969 20.21729850769043 19.91016387939453 20.21729850769043 M 9.253194808959961 21.87350845336914 L 13.94271469116211 21.87350845336914 C 13.60359477996826 22.84639930725098 12.69305515289307 23.54118919372559 11.59795475006104 23.54118919372559 C 10.502854347229 23.54118919372559 9.592324256896973 22.84639930725098 9.253194808959961 21.87350845336914 M 11.5947151184082 0.06560897827148438 C 14.08090496063232 0.06560897827148438 16.4249153137207 1.040178298950195 18.19495391845703 2.809808731079102 C 19.9651050567627 4.57952880859375 20.93996429443359 6.923269271850586 20.93996429443359 9.409278869628906 L 20.93996429443359 12.73640918731689 C 20.93996429443359 14.95263862609863 21.68878555297852 16.91780853271484 22.31696510314941 18.17612838745117 C 22.73007392883301 19.00348854064941 22.67863464355469 19.97944831848145 22.17935562133789 20.78680801391602 C 21.68110466003418 21.59249877929688 20.83280563354492 22.07350921630859 19.91016387939453 22.07350921630859 L 15.83224868774414 22.07350921630859 C 15.35990619659424 24.01303863525391 13.60490608215332 25.40395927429199 11.59795475006104 25.40395927429199 C 9.59100341796875 25.40395927429199 7.836012840270996 24.01303863525391 7.36367130279541 22.07350921630859 L 3.285715103149414 22.07350921630859 C 2.36030387878418 22.07350921630859 1.509544372558594 21.5911979675293 1.00993537902832 20.7833194732666 C 0.5112953186035156 19.97700881958008 0.4598846435546875 19.00235939025879 0.8724155426025391 18.17611885070801 C 1.778594970703125 16.36135864257812 2.257574081420898 14.48034858703613 2.257574081420898 12.73640918731689 L 2.257574081420898 9.409278869628906 C 2.257574081420898 6.92310905456543 3.230964660644531 4.579498291015625 4.998445510864258 2.810178756713867 C 6.766464233398438 1.040319442749023 9.109065055847168 0.06560897827148438 11.5947151184082 0.06560897827148438 Z M 19.91016387939453 20.01729965209961 C 20.1495246887207 20.01729965209961 20.3517951965332 19.9122200012207 20.46509552001953 19.72900772094727 C 20.57840538024902 19.54577827453613 20.5820140838623 19.3177490234375 20.4749755859375 19.10337829589844 C 19.15844535827637 16.46653747558594 18.88209533691406 14.18557929992676 18.88209533691406 12.73640918731689 L 18.88209533691406 9.409278869628906 C 18.88209533691406 5.390998840332031 15.6129846572876 2.121889114379883 11.5947151184082 2.121889114379883 C 7.580034255981445 2.121889114379883 4.313854217529297 5.390998840332031 4.313854217529297 9.409278869628906 L 4.313854217529297 12.73640918731689 C 4.313854217529297 14.18122863769531 4.036655426025391 16.45866012573242 2.716064453125 19.10338973999023 C 2.608915328979492 19.31797790527344 2.61213493347168 19.54563903808594 2.724895477294922 19.72797775268555 C 2.838594436645508 19.91184997558594 3.043014526367188 20.01729965209961 3.285715103149414 20.01729965209961 L 19.91016387939453 20.01729965209961 Z M 13.64198017120361 22.07350921630859 L 9.553932189941406 22.07350921630859 C 9.936086654663086 22.84204864501953 10.72512912750244 23.34118843078613 11.59795475006104 23.34118843078613 C 12.47078895568848 23.34118843078613 13.25983238220215 22.84204864501953 13.64198017120361 22.07350921630859 Z" stroke="none" fill="#fff"/>
        </g>
      </g>
      <g id="Group_872" data-name="Group 872" transform="translate(14.211 0.04)">
        <circle id="Ellipse_55" data-name="Ellipse 55" cx="6" cy="6" r="6" fill="#f5b914"/>
        <text id="_2" data-name="2" transform="translate(4 9)" fill="#fff" font-size="8" font-family="Montserrat-SemiBold, Montserrat" font-weight="600"><tspan x="0" y="0">2</tspan></text>
      </g>
    </g>
  </g>
</svg>
