<svg id="Group_868" data-name="Group 868" xmlns="http://www.w3.org/2000/svg" width="62.634" height="62.348" viewBox="0 0 62.634 62.348">
  <path id="Path_28" data-name="Path 28" d="M4.137,53.64l1.449-.207,4.035-.31a29.283,29.283,0,0,1,12.417,2.69A28.765,28.765,0,0,1,30.108,61.4a1.035,1.035,0,0,0,1.449-1.449,30.835,30.835,0,0,0-8.588-6A31.352,31.352,0,0,0,9.621,51.157l-4.346.207-1.345.207a1.046,1.046,0,0,0,.31,2.069Zm.1-10.761A41.389,41.389,0,0,1,26.28,46.4,41.7,41.7,0,0,1,43.353,61.3a1.035,1.035,0,0,0,.828.414L44.8,61.5a1.035,1.035,0,0,0,.31-1.449,43.768,43.768,0,0,0-17.9-15.521A43.458,43.458,0,0,0,4.033,40.809a1.04,1.04,0,1,0,.207,2.069Z" transform="translate(-2.774 0.327)" fill="#51ae3a"/>
  <path id="Path_29" data-name="Path 29" d="M64,35.2a1.075,1.075,0,0,0,.214-2.139l-3.423-.321V24.5l2.567,1.925.642.214a1.07,1.07,0,0,0,.642-1.925L52.873,16.156a1.07,1.07,0,0,0-1.284,0L39.824,24.713a1.07,1.07,0,0,0,1.284,1.711L43.674,24.5V34.767a53.053,53.053,0,0,0-8.129,2.995l-1.5.749-1.5-.749A53.268,53.268,0,0,0,18,33.27V25.462a11.231,11.231,0,1,0-2.139-.107v7.7a55.941,55.941,0,0,0-12.3,0A1.075,1.075,0,1,0,3.777,35.2a52.412,52.412,0,0,1,27.81,4.385A53.054,53.054,0,0,1,56.831,64.717a1.07,1.07,0,0,0,.963.642h.428a1.07,1.07,0,0,0,.535-1.391,56.8,56.8,0,0,0-4.279-7.487,32.3,32.3,0,0,1,7.915,0l1.6.214H64.1a1.071,1.071,0,1,0,.107-2.139l-1.5-.214a34.336,34.336,0,0,0-9.52.107,55.941,55.941,0,0,0-6.632-7.38,43.427,43.427,0,0,1,17.328-1.5,1.075,1.075,0,0,0,.214-2.139,45.459,45.459,0,0,0-19.467,1.925,53.053,53.053,0,0,0-8.343-5.776H36.4A52.412,52.412,0,0,1,64,35.2Zm-9.627-2.353-4.279.428v-4.6h4.279Zm-8.557-9.948,6.418-4.706,6.418,4.706v9.841H56.51V27.6a1.07,1.07,0,0,0-1.07-1.07H49.022a1.07,1.07,0,0,0-1.07,1.07v6.1l-2.139.428ZM8.376,14.23A9.092,9.092,0,1,1,18,23.322V20.113l4.706-2.246a1.076,1.076,0,1,0-.963-1.925L18,17.76V10.487a1.07,1.07,0,0,0-2.139,0v4.172l-3.958-1.925a1.076,1.076,0,0,0-.963,1.925l4.92,2.353v6.2A9.092,9.092,0,0,1,8.376,14.23Z" transform="translate(-2.595 -3.011)" fill="#51ae3a"/>
</svg>
