<svg xmlns="http://www.w3.org/2000/svg" width="47.928" height="64.616" viewBox="0 0 47.928 64.616">
  <g id="Group_903" data-name="Group 903" transform="translate(-12.539 -5.763)">
    <path id="Path_272" data-name="Path 272" d="M54.1,34.5a8.767,8.767,0,0,0-4.533-.4,4.644,4.644,0,0,1-1.43.048l-.026,0a3.525,3.525,0,0,1-2.317-1.315s0,0,0,0l-.007-.006a6.585,6.585,0,0,1-1.06-1.9.938.938,0,0,1,.373-1.023,7.181,7.181,0,0,0,1.874-2.345,11.294,11.294,0,0,0,1.268-5.279v-7.17a8.551,8.551,0,0,0-2.643-6.583C42.363,5.549,37.306,5.735,36.5,5.784c-.8-.05-5.86-.235-9.091,2.739a8.545,8.545,0,0,0-2.643,6.583v7.17A11.3,11.3,0,0,0,26.04,27.56,7.155,7.155,0,0,0,27.9,29.894a.94.94,0,0,1,.382,1.027c-.949,2.511-2.58,3.585-4.837,3.183a8.747,8.747,0,0,0-4.54.4,9.9,9.9,0,0,0-6.37,9.384V59.915c0,2.384,1.373,5.72,7.918,8.082A49.1,49.1,0,0,0,36.5,70.378c11.928,0,23.964-3.235,23.964-10.463V43.882A9.9,9.9,0,0,0,54.1,34.5ZM50.034,44.881a2.059,2.059,0,1,1-2.059,2.06A2.062,2.062,0,0,1,50.034,44.881ZM28.214,26.4a8.819,8.819,0,0,1-.983-4.125V15.1a6.108,6.108,0,0,1,1.841-4.763c2.64-2.438,7.29-2.1,7.33-2.1a1.229,1.229,0,0,0,.2,0c.048,0,4.663-.357,7.321,2.088a6.108,6.108,0,0,1,1.848,4.77v7.17a8.8,8.8,0,0,1-.98,4.12,4.773,4.773,0,0,1-1.207,1.555,3.374,3.374,0,0,0-1.17,3.839,9.754,9.754,0,0,0,.776,1.592L36.467,38.97l-6.894-5.233a9.409,9.409,0,0,0,1.015-1.947,3.377,3.377,0,0,0-1.178-3.846A4.754,4.754,0,0,1,28.214,26.4ZM58,59.915c0,5.2-11.077,8-21.5,8s-21.5-2.8-21.5-8V43.882a7.436,7.436,0,0,1,4.744-7.068,6.325,6.325,0,0,1,2.165-.384,6.4,6.4,0,0,1,1.111.1c.049.009.1.006.145.014a10.839,10.839,0,0,0-1.059,4.688v.053A5.139,5.139,0,0,0,18.2,46.258v4.076a1.231,1.231,0,0,0,2.463,0V46.258a2.679,2.679,0,0,1,5.358,0v4.076a1.231,1.231,0,0,0,2.463,0V46.258a5.139,5.139,0,0,0-3.908-4.975v-.054a8.372,8.372,0,0,1,1.558-4.861,5.836,5.836,0,0,0,1.733-.84l7.9,5.994a1.229,1.229,0,0,0,1.531-.033l7.49-6.225a5.821,5.821,0,0,0,2.554,1.23A8.472,8.472,0,0,1,48.8,41.229v1.382a4.522,4.522,0,1,0,2.463,0V41.229a10.9,10.9,0,0,0-1.076-4.724,6.3,6.3,0,0,1,3.074.308A7.435,7.435,0,0,1,58,43.882V59.915Z" transform="translate(0 0)" fill="#51ae3a"/>
    <path id="Path_273" data-name="Path 273" d="M41.822,44.666H38.045V40.888a1.231,1.231,0,0,0-1.231-1.231H30.685a1.231,1.231,0,0,0-1.231,1.231v3.778H25.675A1.231,1.231,0,0,0,24.444,45.9v6.129a1.231,1.231,0,0,0,1.231,1.231h3.778v3.766a1.231,1.231,0,0,0,1.231,1.231h6.129a1.231,1.231,0,0,0,1.231-1.231V53.258h3.778a1.231,1.231,0,0,0,1.231-1.231V45.9A1.232,1.232,0,0,0,41.822,44.666Zm-1.231,6.129H36.813a1.231,1.231,0,0,0-1.231,1.231v3.766H31.916V52.026a1.231,1.231,0,0,0-1.231-1.231H26.907V47.129h3.778A1.231,1.231,0,0,0,31.916,45.9V42.12h3.666V45.9a1.231,1.231,0,0,0,1.231,1.231h3.778Z" transform="translate(2.755 7.842)" fill="#51ae3a"/>
  </g>
</svg>
