<svg id="Group_218" data-name="Group 218" xmlns="http://www.w3.org/2000/svg" width="4.429" height="6.643" viewBox="0 0 4.429 6.643">
  <path id="Path_23" data-name="Path 23" d="M13.214,3a.335.335,0,0,0-.258.111L11.111,4.956a.365.365,0,0,0,.517.517l1.845-1.845a.357.357,0,0,0,0-.517A.335.335,0,0,0,13.214,3Z" transform="translate(-9.155 1.06)" fill="red"/>
  <path id="Path_24" data-name="Path 24" d="M6.369,3a.335.335,0,0,0-.258.111.357.357,0,0,0,0,.517L7.956,5.473a.365.365,0,1,0,.517-.517L6.627,3.111A.335.335,0,0,0,6.369,3Z" transform="translate(-6 1.06)" fill="red"/>
  <path id="Path_25" data-name="Path 25" d="M11.369,3A.349.349,0,0,0,11,3.369V9.274a.369.369,0,0,0,.738,0V3.369A.349.349,0,0,0,11.369,3Z" transform="translate(-9.155 -3)" fill="red"/>
</svg>
