<svg id="_Group_" data-name="&lt;Group&gt;" xmlns="http://www.w3.org/2000/svg" width="17.425" height="14.621" viewBox="0 0 17.425 14.621">
  <path id="_Path_" data-name="&lt;Path&gt;" d="M29.286,69.87H37.4A2.135,2.135,0,0,0,37.4,65.6a.286.286,0,0,0,0,.572A1.563,1.563,0,1,1,37.4,69.3H29.286a.286.286,0,1,0,0,.572Z" transform="translate(-29 -65.6)" fill="#51ae3a"/>
  <path id="_Path_2" data-name="&lt;Path&gt;" d="M29.307,116.82H42.351a2.339,2.339,0,0,0-.007-4.676.315.315,0,0,0,0,.629,1.709,1.709,0,0,1,.007,3.417H29.307a.315.315,0,0,0,0,.63Zm14.837,1.574H29.307a.315.315,0,0,0,0,.629H44.144a1.709,1.709,0,0,1,0,3.418.315.315,0,0,0,0,.63,2.339,2.339,0,0,0,0-4.677Z" transform="translate(-29 -110.479)" fill="#51ae3a"/>
  <path id="_Path_3" data-name="&lt;Path&gt;" d="M36.041,328H29.286a.286.286,0,0,0,0,.572h6.755a1.549,1.549,0,1,1,0,3.1.286.286,0,0,0,0,.572,2.121,2.121,0,0,0,0-4.242Z" transform="translate(-29 -317.621)" fill="#51ae3a"/>
</svg>
