<svg id="Group_217" data-name="Group 217" xmlns="http://www.w3.org/2000/svg" width="4.429" height="6.643" viewBox="0 0 4.429 6.643">
  <path id="Path_23" data-name="Path 23" d="M13.214,5.584a.335.335,0,0,1-.258-.111L11.111,3.627a.365.365,0,0,1,.517-.517l1.845,1.845a.357.357,0,0,1,0,.517A.335.335,0,0,1,13.214,5.584Z" transform="translate(-9.155 -3)" fill="#51ae3a"/>
  <path id="Path_24" data-name="Path 24" d="M6.369,5.584a.335.335,0,0,1-.258-.111.357.357,0,0,1,0-.517L7.956,3.111a.365.365,0,1,1,.517.517L6.627,5.473a.335.335,0,0,1-.258.111Z" transform="translate(-6 -3)" fill="#51ae3a"/>
  <path id="Path_25" data-name="Path 25" d="M11.369,9.643A.349.349,0,0,1,11,9.274V3.369a.369.369,0,0,1,.738,0V9.274A.349.349,0,0,1,11.369,9.643Z" transform="translate(-9.155 -3)" fill="#51ae3a"/>
</svg>
