<svg xmlns="http://www.w3.org/2000/svg" width="16.554" height="26.573" viewBox="0 0 16.554 26.573">
  <g id="Group_188" data-name="Group 188" transform="translate(-4.05 -0.737)">
    <path id="XMLID_388_" d="M11,18.919a6.385,6.385,0,0,0,4.006-1.929,6.737,6.737,0,0,0,1.929-4.748.7.7,0,0,0-.742-.742,6.5,6.5,0,0,0-4.748,1.929L11,13.874" transform="translate(2.918 4.674)" fill="none" stroke="#333" stroke-miterlimit="10" stroke-width="1.5"/>
    <path id="XMLID_387_" d="M10.735,18.919A6.385,6.385,0,0,1,6.729,16.99,6.737,6.737,0,0,1,4.8,12.242a.7.7,0,0,1,.742-.742,6.5,6.5,0,0,1,4.748,1.929l.445.445" transform="translate(0 4.674)" fill="none" stroke="#333" stroke-linecap="round" stroke-linejoin="round" stroke-miterlimit="10" stroke-width="1.5"/>
    <path id="XMLID_389_" d="M11.632,13.081a5.336,5.336,0,0,0,3.116-1.632A5.388,5.388,0,0,0,16.381,7.59a.957.957,0,0,0-.89-.89,5.654,5.654,0,0,0-3.858,1.632A6.341,6.341,0,0,0,10,11.448" transform="translate(2.435 2.432)" fill="none" stroke="#333" stroke-miterlimit="10" stroke-width="1.5"/>
    <path id="XMLID_1593_" d="M8.082,6.071a5.874,5.874,0,0,0,2.671,3.264.714.714,0,0,0,.89-.3,5.662,5.662,0,0,0,.445-4.155A5.874,5.874,0,0,0,9.417,1.619a.714.714,0,0,0-.89.3A5.026,5.026,0,0,0,8.082,6.071Z" transform="translate(1.432)" fill="none" stroke="#333" stroke-miterlimit="10" stroke-width="1.5"/>
    <path id="XMLID_390_" d="M10.448,13.032A5.336,5.336,0,0,1,7.332,11.4,5.313,5.313,0,0,1,5.7,7.69a.855.855,0,0,1,.89-.89,5.654,5.654,0,0,1,3.858,1.632,6.341,6.341,0,0,1,1.632,3.116" transform="translate(0.435 2.479)" fill="none" stroke="#333" stroke-miterlimit="10" stroke-width="1.5"/>
    <path id="XMLID_1591_" d="M11.968,21.371a1.4,1.4,0,0,1-1.484,1.484h0A1.4,1.4,0,0,1,9,21.371V10.984A1.4,1.4,0,0,1,10.484,9.5h0a1.4,1.4,0,0,1,1.484,1.484Z" transform="translate(1.99 3.706)" fill="none" stroke="#333" stroke-miterlimit="10" stroke-width="1.5"/>
    <path id="XMLID_383_" d="M11.968,21.371a1.4,1.4,0,0,1-1.484,1.484h0A1.4,1.4,0,0,1,9,21.371V10.984A1.4,1.4,0,0,1,10.484,9.5h0a1.4,1.4,0,0,1,1.484,1.484Z" transform="translate(1.99 3.706)" fill="none" stroke="#333" stroke-miterlimit="10" stroke-width="1.5"/>
  </g>
</svg>
