<svg xmlns="http://www.w3.org/2000/svg" width="52.246" height="25" viewBox="0 0 52.246 25">
  <g id="Group_975" data-name="Group 975" transform="translate(-503 -1078)">
    <g id="Path_278" data-name="Path 278" transform="translate(503 1078)" fill="#fff" stroke-linecap="round">
      <path d="M 20.13365173339844 23.97928047180176 L 6.21981954574585 23.97928047180176 C 3.286459684371948 23.97928047180176 0.899999737739563 21.59282112121582 0.899999737739563 18.65946006774902 L 0.899999737739563 6.219820976257324 C 0.899999737739563 3.286461114883423 3.286459684371948 0.9000009894371033 6.21981954574585 0.9000009894371033 L 30.98159599304199 0.9000009894371033 C 28.23498725891113 5.825173854827881 22.19816970825195 19.12790298461914 20.13365173339844 23.97928047180176 Z" stroke="none"/>
      <path d="M 6.219820022583008 1.80000114440918 C 3.782720565795898 1.80000114440918 1.799999237060547 3.782720565795898 1.799999237060547 6.219821929931641 L 1.799999237060547 18.65946197509766 C 1.799999237060547 21.09656143188477 3.782720565795898 23.07928085327148 6.219820022583008 23.07928085327148 L 19.54092216491699 23.07928085327148 C 21.48870086669922 18.56509780883789 26.5217227935791 7.416299819946289 29.47195243835449 1.80000114440918 L 6.219820022583008 1.80000114440918 M 6.219820022583008 1.9073486328125e-06 L 32.57683944702148 1.9073486328125e-06 C 30.52655029296875 2.911441802978516 22.72397994995117 20.11116027832031 20.73062896728516 24.87928009033203 L 6.219820022583008 24.87928009033203 C 2.784709930419922 24.87928009033203 0 22.09457015991211 0 18.65946197509766 L 0 6.219821929931641 C 0 2.784711837768555 2.784709930419922 1.9073486328125e-06 6.219820022583008 1.9073486328125e-06 Z" stroke="none" fill="#fff"/>
    </g>
    <g id="Rectangle_1724" data-name="Rectangle 1724" transform="translate(503.246 1078)" fill="none" stroke="#fff" stroke-linecap="round" stroke-linejoin="round" stroke-width="1.8">
      <rect width="52" height="25" rx="5" stroke="none"/>
      <rect x="0.9" y="0.9" width="50.2" height="23.2" rx="4.1" fill="none"/>
    </g>
    <text id="અ" transform="translate(542.569 1096.488)" fill="#fff" font-size="15" font-family="NirmalaUI-Bold, Nirmala UI" font-weight="700"><tspan x="-7.335" y="0">અ</tspan></text>
    <path id="Path_180" data-name="Path 180" d="M6.2,25.551H9.315l.779-2.077h4.023l.779,2.077H18.01L13.6,14H10.483Zm5.84-8.306,1.3,4.023h-2.6Z" transform="translate(505.515 1070.595)" fill="#417e3a"/>
    <path id="Path_244" data-name="Path 244" d="M170.4,54.282,159.064,77.735" transform="translate(364.462 1024.76)" fill="none" stroke="#fff" stroke-width="2"/>
  </g>
</svg>
