<svg id="Layer_2" data-name="Layer 2" xmlns="http://www.w3.org/2000/svg" width="17.425" height="17.732" viewBox="0 0 17.425 17.732">
  <path id="Path_81" data-name="Path 81" d="M16.545,17.659h0a5.609,5.609,0,0,0-11.058,0h0a3.278,3.278,0,0,0-.434,6.513.362.362,0,0,0,.141.029H7.441L6.222,26.948a.362.362,0,1,0,.662.293l1.332-3.029H9.594l-2.667,6a.362.362,0,0,0,.662.293l2.8-6.3h1.379l-1.219,2.746a.362.362,0,1,0,.662.293l1.35-3.04h1.379l-2.667,6a.362.362,0,0,0,.662.293l2.8-6.3h2.106a.336.336,0,0,0,.134-.029,3.278,3.278,0,0,0-.427-6.513Zm.253,5.829H5.208a2.555,2.555,0,0,1,.257-5.095,2.583,2.583,0,0,1,.282,0,.361.361,0,0,0,.4-.318,4.885,4.885,0,0,1,9.712,0,.362.362,0,0,0,.4.322,2.584,2.584,0,0,1,.282,0,2.555,2.555,0,0,1,.257,5.091Z" transform="translate(-2.299 -12.992)" fill="#51ae3a"/>
</svg>
