<svg xmlns="http://www.w3.org/2000/svg" width="25" height="25.004" viewBox="0 0 25 25.004">
  <path id="Path_10" data-name="Path 10" d="M23.8,31.006H9.209A3.126,3.126,0,0,1,6.084,27.88V17.461H5.042a1.042,1.042,0,0,1-.656-1.844L15.846,6.24a1.042,1.042,0,0,1,1.323,0l11.461,9.377a1.042,1.042,0,0,1-.667,1.844H26.922V27.88A3.126,3.126,0,0,1,23.8,31.006ZM7.73,15.565a1.042,1.042,0,0,1,.438.854V27.88a1.042,1.042,0,0,0,1.042,1.042H23.8a1.042,1.042,0,0,0,1.042-1.042V16.419a1.042,1.042,0,0,1,.438-.854L16.5,8.386Z" transform="translate(-4.008 -6.003)" fill="#333"/>
</svg>
