<svg xmlns="http://www.w3.org/2000/svg" width="25" height="25" viewBox="0 0 25 25">
  <path id="Path_21" data-name="Path 21" d="M20.586,14.18a6.718,6.718,0,0,1-.977-.352h0a6.407,6.407,0,0,0,2.266-5.2,4.751,4.751,0,0,0-4.766-4.727A4.689,4.689,0,0,0,12.5,0,4.758,4.758,0,0,0,7.891,3.906,4.736,4.736,0,0,0,3.125,8.555a6.87,6.87,0,0,0,2.266,5.234l-.039.039a8.074,8.074,0,0,1-.937.352C2.773,14.727,0,15.664,0,18.867v2.109a.784.784,0,0,0,.781.781H3.2a6.411,6.411,0,0,0-.078.9v1.563A.784.784,0,0,0,3.906,25H21.094a.784.784,0,0,0,.781-.781V22.656a6.411,6.411,0,0,0-.078-.9h2.422A.784.784,0,0,0,25,20.977V18.867C25,15.664,22.227,14.727,20.586,14.18Zm-.273-5.547c0,1.953-1.016,4.063-2.734,4.531a9.412,9.412,0,0,0,.391-2.617,5.348,5.348,0,0,0-2.578-4.609,3.618,3.618,0,0,1,1.68-.469A3.193,3.193,0,0,1,20.313,8.633ZM8.594,10.547a3.906,3.906,0,0,1,7.813,0c0,2.891-1.953,5.859-3.906,5.859S8.594,13.438,8.594,10.547ZM12.5,1.563a3.131,3.131,0,0,1,3.047,2.578A5.761,5.761,0,0,0,13.711,5.2,6.428,6.428,0,0,0,12.5,5.039a4.121,4.121,0,0,0-1.211.156A4.531,4.531,0,0,0,9.453,4.141,3.131,3.131,0,0,1,12.5,1.563ZM4.688,8.555A3.154,3.154,0,0,1,7.93,5.469a3.208,3.208,0,0,1,1.68.469,5.348,5.348,0,0,0-2.578,4.609,9.412,9.412,0,0,0,.391,2.617C5.7,12.656,4.688,10.547,4.688,8.555ZM1.563,20.2V18.867c0-1.914,1.445-2.578,3.359-3.2a11.727,11.727,0,0,0,1.133-.43,2.548,2.548,0,0,0,.82-.625,6.308,6.308,0,0,0,1.289.234,7.483,7.483,0,0,0,1.523,1.914l-.234.117c-.273.117-.7.273-1.172.43C6.875,17.773,4.8,18.438,3.789,20.2Zm21.875,0H21.25c-1.016-1.719-2.969-2.383-4.18-2.773a.76.76,0,0,0-.977.508.775.775,0,0,0,.508.977c1.992.664,3.75,1.445,3.75,3.75v.781H4.688v-.781c0-2.344,1.758-3.125,4.063-3.867a6.314,6.314,0,0,0,1.328-.508,2.569,2.569,0,0,0,.9-.664,3.609,3.609,0,0,0,1.523.352c1.6,0,3.281-1.211,4.375-3.125a3.75,3.75,0,0,0,1.289-.234,2.548,2.548,0,0,0,.82.625,11.727,11.727,0,0,0,1.133.43c1.875.625,3.359,1.289,3.359,3.2V20.2Z" fill="#333"/>
</svg>
