<svg xmlns="http://www.w3.org/2000/svg" width="11.612" height="18.615" viewBox="0 0 11.612 18.615">
  <path id="path7" d="M22.659,19.992a1.161,1.161,0,0,0,0,2.322h2.322a3.475,3.475,0,0,1,3.28,2.359h-5.6a1.161,1.161,0,0,0,0,2.322h5.579a3.476,3.476,0,0,1-3.257,2.286H22.659A1.162,1.162,0,0,0,21.5,30.443a.052.052,0,0,0,0,.018,1.146,1.146,0,0,0,.336.839l6.967,6.967a1.155,1.155,0,0,0,.821.34,1.176,1.176,0,0,0,.826-.34,1.162,1.162,0,0,0,0-1.642L25.39,31.563A5.793,5.793,0,0,0,30.66,27h1.288a1.161,1.161,0,0,0,0-2.322H30.674A5.778,5.778,0,0,0,29.6,22.31h2.349v0a1.161,1.161,0,0,0,0-2.322H22.659Z" transform="translate(-21.498 -19.992)" fill="#333"/>
</svg>
