<svg xmlns="http://www.w3.org/2000/svg" width="25" height="25" viewBox="0 0 25 25">
  <path id="Path_22" data-name="Path 22" d="M4.679,2A2.691,2.691,0,0,0,2,4.675v5.361a4.45,4.45,0,0,0,1.786,3.547V24.321A2.693,2.693,0,0,0,6.464,27H22.536a2.693,2.693,0,0,0,2.679-2.679V13.583A4.45,4.45,0,0,0,27,10.036V4.675A2.691,2.691,0,0,0,24.321,2Zm0,1.786H24.321a.87.87,0,0,1,.893.889v5.361a2.653,2.653,0,0,1-2.679,2.679h-.893a2.653,2.653,0,0,1-2.679-2.679.893.893,0,0,0-1.786,0,2.679,2.679,0,1,1-5.357,0,.893.893,0,0,0-1.786,0,2.653,2.653,0,0,1-2.679,2.679H6.464a2.653,2.653,0,0,1-2.679-2.679V4.675a.87.87,0,0,1,.893-.889Zm6.25,8.787a4.4,4.4,0,0,0,3.42,1.917l.01,0a.9.9,0,0,0,.141.009.889.889,0,0,0,.124-.009,4.4,4.4,0,0,0,3.448-1.918A4.39,4.39,0,0,0,21.643,14.5h.893a4.456,4.456,0,0,0,.893-.091v9.912a.872.872,0,0,1-.893.893H18.071V20.75a2.693,2.693,0,0,0-2.679-2.679H13.607a2.693,2.693,0,0,0-2.679,2.679v4.464H6.464a.872.872,0,0,1-.893-.893V14.409a4.456,4.456,0,0,0,.893.091h.893a4.39,4.39,0,0,0,3.571-1.927Zm2.679,7.284h1.786a.872.872,0,0,1,.893.893v4.464H12.714V20.75A.872.872,0,0,1,13.607,19.857Z" transform="translate(-2 -2)" fill="#333"/>
</svg>
